<?xml version="1.0" encoding="UTF-8" standalone="no" ?>
<!DOCTYPE svg PUBLIC "-//W3C//DTD SVG 1.1//EN" "http://www.w3.org/Graphics/SVG/1.1/DTD/svg11.dtd">
<svg xmlns="http://www.w3.org/2000/svg" xmlns:xlink="http://www.w3.org/1999/xlink" version="1.1" width="1280" height="1024" viewBox="0 0 1280 1024" xml:space="preserve">
<desc>Created with Fabric.js 5.3.0</desc>
<defs>
</defs>
<g transform="matrix(1 0 0 1 640 512)" id="background-logo"  >
<rect style="stroke: none; stroke-width: 0; stroke-dasharray: none; stroke-linecap: butt; stroke-dashoffset: 0; stroke-linejoin: miter; stroke-miterlimit: 4; fill: rgb(37,51,85); fill-rule: nonzero; opacity: 1;"  paint-order="stroke"  x="-640" y="-512" rx="0" ry="0" width="1280" height="1024" />
</g>
<g transform="matrix(1.9211538461538462 0 0 1.9211538461538462 640 411.4682553030295)" id="logo-logo"  >
<g style=""  paint-order="stroke"   >
		<g transform="matrix(1.0814490005726516 0 0 1.0814490005726516 0 0)"  >
<g style=""  paint-order="stroke"   >
		<g transform="matrix(1 0 0 1 0 0)"  >
<path style="stroke: none; stroke-width: 1; stroke-dasharray: none; stroke-linecap: butt; stroke-dashoffset: 0; stroke-linejoin: miter; stroke-miterlimit: 4; fill: rgb(247,207,113); fill-rule: nonzero; opacity: 1;"  paint-order="stroke"  transform=" translate(-100.63793630845659, -101.03706504899883)" d="M 196.85 90.33 L 111.34 4.83 C 105.4264665798534 -1.0695726559580727 95.85353342014659 -1.06957265595807 89.94 4.830000000000005 L 4.43 90.33 C -1.4762266858762683 96.24468463730105 -1.47622668587627 105.82531536269894 4.43 111.74 L 89.94 197.24 C 95.85125517855597 203.14507945328828 105.42874482144403 203.14507945328828 111.34 197.24 L 196.85000000000002 111.74000000000001 C 202.7507235084272 105.82303923908667 202.7507235084272 96.24696076091332 196.85 90.33 Z M 196 97.44 L 174.67 97.44 C 174.36920905754488 96.35432421321605 173.92175228968324 95.3147442036728 173.33999999999997 94.35 L 194.21999999999997 94.35 C 194.98730813077856 95.2694902170178 195.58954393887038 96.31494451308731 196 97.44 Z M 192.36 92.44 L 171.92 92.44 C 171.75 92.25 171.57999999999998 92.05 171.39 91.86 L 168.89 89.36 L 189.25 89.36 Z M 187.36 87.44 L 166.94 87.44 L 163.85999999999999 84.36 L 184.21999999999997 84.36 Z M 182.36 82.44 L 161.91 82.44 L 158.82 79.35 L 179.19 79.35 Z M 177.36 77.44 L 156.88 77.44 L 153.79 74.35 L 174.16 74.35 Z M 172.36 72.44 L 151.85 72.44 L 148.76 69.35 L 169.13 69.35 Z M 167.36 67.44 L 146.82 67.44 L 143.73 64.35 L 164.08999999999997 64.35 Z M 158.53 58.599999999999994 L 162.33 62.39999999999999 L 141.78 62.39999999999999 L 138.7 59.31999999999999 L 158.35 59.31999999999999 Z M 157.3 57.37 L 136.75 57.37 L 133.67 54.28 L 154 54.28 Z M 152.3 52.37 L 131.72 52.37 L 128.63 49.28 L 149 49.28 Z M 147.3 47.37 L 126.69 47.37 L 123.6 44 L 144 44 Z M 142.3 42.37 L 121.66 42.37 L 118.57 39 L 138.93 39 Z M 137.3 37.37 L 116.63 37.37 L 113.54 34 L 133.9 34 Z M 132.3 32.37 L 111.59 32.37 L 109.59 30.369999999999997 C 109.19171350316167 29.979180554256214 108.7710010311724 29.611891888233846 108.33 29.26999999999999 L 128.86 29.269999999999996 Z M 106.53 6.86 L 94.75 6.86 C 98.30684203077837 4.449872974090592 102.97315796922163 4.449872974090594 106.53 6.859999999999997 Z M 92.53 8.86 L 108.73 8.86 L 111.82000000000001 11.94 L 89.45 11.94 Z M 87.53 13.86 L 113.8 13.86 L 116.89 16.95 L 84.42 16.95 Z M 82.53 18.86 L 118.87 18.86 L 121.89 22 L 79.39 22 Z M 77.53 23.86 L 123.93 23.86 L 126.93 27 L 104.73 27 C 102.00550378778746 26.05977294329096 99.04449621221255 26.05977294329096 96.32000000000001 27 L 74.32000000000001 27 Z M 72.53 28.86 L 92.83 28.86 C 92.34445055429278 29.207967540663944 91.88336622181922 29.588863293576885 91.45 29.999999999999996 L 89.45 32 L 69.32 32 Z M 67.53 33.86 L 87.51 33.86 L 84.42 36.94 L 64.29 36.94 Z M 62.53 38.86 L 82.48 38.86 L 79.39 41.95 L 59.26 41.95 Z M 57.53 43.86 L 77.45 43.86 L 74.36 46.95 L 54.23 46.95 Z M 52.53 48.86 L 72.41 48.86 L 69.33 51.95 L 49.19 51.95 Z M 47.53 53.86 L 67.38 53.86 L 64.28999999999999 56.95 L 44.16 56.95 Z M 42.53 58.86 L 62.35 58.86 L 59.260000000000005 61.94 L 39.13 61.94 Z M 37.53 63.86 L 57.32 63.86 L 54.230000000000004 66.95 L 34.1 66.95 Z M 32.53 68.86 L 52.29 68.86 L 49.2 72.28 L 29.07 72.28 Z M 27.53 73.86 L 47.25 73.86 L 44.17 76.95 L 24 76.95 Z M 22.53 78.86 L 42.22 78.86 L 39.14 81.95 L 19 81.95 Z M 17.53 83.86 L 37.19 83.86 L 34.1 87.37 L 14 87.37 Z M 12.530000000000001 88.86 L 32.16 88.86 L 29.65 91.36 C 29.47 91.55 29.299999999999997 91.75 29.13 91.94 L 8.94 91.94 Z M 7.530000000000001 93.86 L 27.7 93.86 C 27.12234340487591 94.8268428623398 26.675130514970967 95.86585626820919 26.369999999999997 96.95 L 5.29 96.95 C 5.745713535665123 95.999150938776 6.342445370488453 95.1225957011824 7.059999999999997 94.35 Z M 4.65 101 C 4.656033809976974 100.44730587441815 4.7028274311542075 99.89580962482934 4.790000000000001 99.35 L 26 99.35 C 25.88854381999832 100.34689437998485 25.88854381999832 101.35310562001514 26 102.35 L 4.74 102.35 C 4.68402859291075 101.90210854845684 4.653978532558863 101.45135764317853 4.65 101 Z M 5.180000000000001 104.28 L 26.36 104.28 C 26.655696773205644 105.36107117218725 27.09636382108972 106.397143315304 27.67 107.36 L 6.81 107.36 C 6.095862530553015 106.44427729596866 5.544496452934652 105.41258003416743 5.180000000000001 104.31 Z M 8.610000000000001 109.28 L 29.07 109.28 C 29.26 109.49 29.45 109.71000000000001 29.65 109.92 L 32.1 112.36 L 11.7 112.36 Z M 13.610000000000001 114.28 L 34 114.28 L 37.09 117.37 L 16.73 117.37 Z M 18.61 119.28 L 39.01 119.28 L 42.089999999999996 122.37 L 21.76 122.37 Z M 23.61 124.28 L 44.01 124.28 L 47.099999999999994 127.37 L 26.79 127.37 Z M 28.61 129.28 L 49.01 129.28 L 52.099999999999994 132.36 L 31.83 132.36 Z M 33.61 134.28 L 54.01 134.28 L 57.099999999999994 137.36 L 36.86 137.36 Z M 38.61 139.28 L 59.2 139.28 L 62.290000000000006 142.37 L 41.89 142.37 Z M 43.61 144.28 L 64.24 144.28 L 67.32 147.37 L 46.92 147.37 Z M 48.61 149.28 L 69.00999999999999 149.28 L 72.08999999999999 152.37 L 52 152.37 Z M 53.61 154.28 L 74.3 154.28 L 77.39 157.37 L 57 157.37 Z M 58.61 159.28 L 79.00999999999999 159.28 L 82.1 162.36 L 62 162.36 Z M 63.61 164.28 L 84.00999999999999 164.28 L 87.1 167.37 L 67.05 167.37 Z M 68.61 169.28 L 89.4 169.28 L 91.4 171.33 C 91.7705469401305 171.68932542259358 92.1647639957248 172.0234076730972 92.58000000000001 172.33 L 72.08 172.33 Z M 93.93 194.44 L 107 194.44 C 103.35171853798118 197.42758641910748 98.15644817992106 197.60772187675497 94.31 194.88 Z M 108.69000000000001 192.49 L 92.21 192.49 L 89.11999999999999 189.41 L 112.11999999999999 189.41 Z M 113.69000000000001 187.49 L 87.18 187.49 L 84.09 184.41 L 117.19 184.41 Z M 118.69000000000001 182.49 L 81.69000000000001 182.49 L 78.61000000000001 179.4 L 121.77000000000001 179.4 Z M 123.69000000000001 177.49 L 77.11 177.49 L 74 174.75 L 96.15 174.75 C 98.97744962039062 175.77022818030446 102.0725503796094 175.77022818030446 104.9 174.75 L 127.25 174.75 Z M 128.69 172.49 L 108.42 172.49 C 108.83323902550327 172.18089256096718 109.22729955286535 171.8469429615078 109.60000000000001 171.49 L 111.65 169.44 L 132.28 169.44 Z M 133.69 167.49 L 113.6 167.49 L 116.67999999999999 164.4 L 137.32 164.4 Z M 138.69 162.49 L 118.63 162.49 L 121.72 159.41 L 142.35 159.41 Z M 143.69 157.49 L 123.66 157.49 L 126.75 154.4 L 147.38 154.4 Z M 148.69 152.49 L 128.69 152.49 L 131.78 149.4 L 152.41 149.4 Z M 153.69 147.49 L 133.72 147.49 L 136.81 144.4 L 157.44 144.4 Z M 158.69 142.49 L 138.76 142.49 L 141.84 139.4 L 162.48000000000002 139.4 Z M 163.69 137.49 L 143.79 137.49 L 146.88 134.41 L 167.51 134.41 Z M 168.69 132.49 L 148.82 132.49 L 151.91 129.41 L 172.54 129.41 Z M 173.69 127.49000000000001 L 153.85 127.49000000000001 L 156.94 124.4 L 177.57 124.4 Z M 178.69 122.49000000000001 L 158.88 122.49000000000001 L 162 119.4 L 182.6 119.4 Z M 183.69 117.49000000000001 L 163.92 117.49000000000001 L 167 114.4 L 187.64 114.4 Z M 188.69 112.49000000000001 L 169 112.49000000000001 L 171.44 110.05000000000001 C 171.65 109.84000000000002 171.82999999999998 109.62 172.02 109.41000000000001 L 192.72 109.41000000000001 Z M 193.57999999999998 107.49000000000001 L 173.38 107.49000000000001 C 173.94539273786856 106.52298009635432 174.38558646521764 105.48802079846483 174.69 104.41000000000001 L 196.09 104.41000000000001 C 195.7175478563139 105.48566031326999 195.1701994685509 106.49251105125383 194.47 107.39 Z M 195.64 102.49000000000001 L 175.06 102.49000000000001 C 175.18161114511153 101.49369731765384 175.18161114511153 100.48630268234618 175.06 99.49000000000001 L 196.49 99.49000000000001 C 196.63302403366902 100.44045873274521 196.64648000235917 101.40592448626487 196.53 102.36 Z" stroke-linecap="round" />
</g>
</g>
</g>
</g>
</g>
<g transform="matrix(1.9211538461538462 0 0 1.9211538461538462 639.9519711538462 707.8688313561447)" id="text-logo"  >
<g style=""  paint-order="stroke"   >
		<g transform="matrix(1 0 0 1 0 0)" id="text-logo-path-0"  >
<path style="stroke: none; stroke-width: 0; stroke-dasharray: none; stroke-linecap: butt; stroke-dashoffset: 0; stroke-linejoin: miter; stroke-miterlimit: 4; fill: rgb(247,207,113); fill-rule: nonzero; opacity: 1;"  paint-order="stroke"  transform=" translate(-151.25, 17.5)" d="M 13.5 0 L 22 0 L 22 -28 L 33 -28 L 33 -35 L 2.5 -35 L 2.5 -28 L 13.5 -28 L 13.5 0 Z M 41.9 0 L 70.4 0 L 70.4 -7 L 50.4 -7 L 50.4 -14 L 65.4 -14 L 65.4 -21 L 50.4 -21 L 50.4 -28 L 70.4 -28 L 70.4 -35 L 41.9 -35 L 41.9 0 Z M 90.3 0 L 98.8 0 L 98.8 -28 L 109.8 -28 L 109.8 -35 L 79.3 -35 L 79.3 -28 L 90.3 -28 L 90.3 0 Z M 136.75 0.5 C 148.7 0.5 154.7 -5.3 154.7 -17.55 C 154.7 -29.55 149.1 -35.5 136.75 -35.5 C 124.7 -35.5 118.7 -29.9 118.7 -17.55 C 118.7 -5.5 124.35 0.5 136.75 0.5 Z M 127.2 -17.55 C 127.2 -24.9 130.2 -28.5 136.75 -28.5 C 143 -28.5 146.2 -25 146.2 -17.55 C 146.2 -10.15 143.3 -6.5 136.75 -6.5 C 130.35 -6.5 127.2 -9.95 127.2 -17.55 Z M 163.6 0 L 172.1 0 L 172.1 -11.5 L 178.45 -11.5 L 185.1 0 L 194.1 0 L 187 -12.3 C 191.3 -13.8 193.45 -17.5 193.45 -23.35 C 193.45 -31.1 189.55 -35 181.75 -35 L 163.6 -35 L 163.6 0 Z M 172.1 -18.5 L 172.1 -28 L 181.7 -28 C 183.75 -28 184.95 -26.45 184.95 -23.3 C 184.95 -20.1 183.85 -18.5 181.7 -18.5 L 172.1 -18.5 Z M 203 0 L 211.5 0 L 211.5 -35 L 203 -35 L 203 0 Z M 238.45 0.5 C 249.85 0.5 255.55 -3.65 255.55 -11.95 L 247.05 -11.95 C 247.05 -8.35 243.05 -6.5 238.45 -6.5 C 232 -6.5 228.9 -9.8 228.9 -17.55 C 228.9 -25 231.8 -28.5 238.45 -28.5 C 243.3 -28.5 247.1 -27 247.1 -23 L 255.6 -23 C 255 -31.35 248.45 -35.5 238.45 -35.5 C 226.25 -35.5 220.4 -30 220.4 -17.55 C 220.4 -5.35 225.9 0.5 238.45 0.5 Z M 291.5 0 L 300 0 L 286.75 -35 L 277.75 -35 L 264.5 0 L 273 0 L 275.45 -6.5 L 289.05 -6.5 L 291.5 0 Z M 278.1 -13.5 L 282.25 -24.45 L 286.4 -13.5 L 278.1 -13.5 Z" stroke-linecap="round" />
</g>
</g>
</g>
<g transform="matrix(1.9211538461538462 0 0 1.9211538461538462 640.1373625 792.0165993561448)" id="tagline-d42b78e6-b262-41b6-887f-c7d408782666-logo"  >
<g style=""  paint-order="stroke"   >
		<g transform="matrix(1 0 0 1 0 0)" id="tagline-d42b78e6-b262-41b6-887f-c7d408782666-logo-path-0"  >
<path style="stroke: none; stroke-width: 0; stroke-dasharray: none; stroke-linecap: butt; stroke-dashoffset: 0; stroke-linejoin: miter; stroke-miterlimit: 4; fill: rgb(247,207,113); fill-rule: nonzero; opacity: 1;"  paint-order="stroke"  transform=" translate(-81.41999999999999, 9.1)" d="M 8.14 -3.12 L 3.98 -3.12 L 3.98 -15.08 L 8.14 -15.08 C 12.87 -15.08 14.12 -13.81 14.12 -9.1 C 14.12 -4.37 12.84 -3.12 8.14 -3.12 Z M 8.14 0 C 14.56 0 17.24 -2.57 17.24 -9.1 C 17.24 -15.55 14.64 -18.2 8.14 -18.2 L 0.86 -18.2 L 0.86 0 Z M 31.54 0 L 45.06 0 L 45.06 -3.12 L 34.66 -3.12 L 34.66 -7.54 L 42.46 -7.54 L 42.46 -10.66 L 34.66 -10.66 L 34.66 -15.08 L 45.06 -15.08 L 45.06 -18.2 L 31.54 -18.2 Z M 71.37 -13 L 74.49 -13 C 74.49 -16.9 72.54 -18.46 67.24 -18.46 C 60.92 -18.46 59.36 -16.25 59.36 -12.58 C 59.36 -10.24 60.94 -7.83 64.3 -7.67 L 69.99 -7.44 C 71.63 -7.36 71.97 -6.99 71.97 -5.62 C 71.97 -3.48 71.34 -2.86 67.21 -2.86 C 62.95 -2.86 62.48 -3.28 62.48 -5.62 L 59.36 -5.62 C 59.36 -1.56 61.02 0.26 67.21 0.26 C 73.22 0.26 75.09 -1.72 75.09 -5.62 C 75.09 -8.84 73.24 -10.43 70.15 -10.56 L 64.45 -10.79 C 63.08 -10.84 62.48 -11.65 62.48 -12.58 C 62.48 -14.74 63.05 -15.34 67.24 -15.34 C 70.88 -15.34 71.37 -14.98 71.37 -13 Z M 92.51 0 L 92.51 -4.78 L 95.19 -7.64 L 102.34 0 L 106.34 0 L 97.19 -9.8 L 105.04 -18.2 L 101.04 -18.2 L 92.51 -9.07 L 92.51 -18.2 L 89.39 -18.2 L 89.39 0 Z M 120.64 0 L 134.16 0 L 134.16 -3.12 L 123.76 -3.12 L 123.76 -7.54 L 131.56 -7.54 L 131.56 -10.66 L 123.76 -10.66 L 123.76 -15.08 L 134.16 -15.08 L 134.16 -18.2 L 120.64 -18.2 Z M 148.46 0 L 161.98 0 L 161.98 -3.12 L 151.58 -3.12 L 151.58 -18.2 L 148.46 -18.2 Z" stroke-linecap="round" />
</g>
</g>
</g>
<g transform="matrix(1.9211538461538462 0 0 1.9211538461538462 640 406.37020461072177)" id="tagline-fe788681-d35c-41fb-b2ad-4aa334383e42-logo"  >
<g style=""  paint-order="stroke"   >
		<g transform="matrix(1 0 0 1 0 0)" id="tagline-fe788681-d35c-41fb-b2ad-4aa334383e42-logo-path-0"  >
<filter id="SVGID_600905" y="-20%" height="140%" x="-25.19618170098296%" width="150.39236340196592%" >
	<feGaussianBlur in="SourceAlpha" stdDeviation="0"></feGaussianBlur>
	<feOffset dx="2.3455564198237098" dy="0" result="oBlur" ></feOffset>
	<feFlood flood-color="rgb(183,152,79)" flood-opacity="1"/>
	<feComposite in2="oBlur" operator="in" />
	<feMerge>
		<feMergeNode></feMergeNode>
		<feMergeNode in="SourceGraphic"></feMergeNode>
	</feMerge>
</filter>
<path style="stroke: rgb(247,207,113); stroke-width: 2.3455564198237098; stroke-dasharray: none; stroke-linecap: butt; stroke-dashoffset: 0; stroke-linejoin: miter; stroke-miterlimit: 4; fill: rgb(37,51,85); fill-rule: nonzero; opacity: 1;filter: url(#SVGID_600905);"  paint-order="stroke"  transform=" translate(-26.27, 25.9)" d="M 19.98 0 L 32.56 0 L 32.56 -41.44 L 48.84 -41.44 L 48.84 -51.8 L 3.7 -51.8 L 3.7 -41.44 L 19.98 -41.44 L 19.98 0 Z" stroke-linecap="round" />
</g>
</g>
</g>
</svg>